<svg xmlns:mydata="http://www.w3.org/2000/svg" mydata:contrastcolor="11111f" mydata:template="Contrast" mydata:presentation="2.5" mydata:layouttype="undefined" mydata:specialfontid="undefined" mydata:id1="107" mydata:id2="235" mydata:companyname="Kod Challenge" mydata:companytagline="" version="1.1" xmlns="http://www.w3.org/2000/svg" xmlns:xlink="http://www.w3.org/1999/xlink" viewBox="0 0 550 470"><g fill="#ffb500" fill-rule="nonzero" stroke="none" stroke-width="1" stroke-linecap="butt" stroke-linejoin="miter" stroke-miterlimit="10" stroke-dasharray="" stroke-dashoffset="0" font-family="none" font-weight="none" font-size="none" text-anchor="none" style="mix-blend-mode: normal"><g data-paper-data="{&quot;isGlobalGroup&quot;:true,&quot;bounds&quot;:{&quot;x&quot;:65,&quot;y&quot;:131.27472793228534,&quot;width&quot;:420,&quot;height&quot;:207.45054413542928}}"><g data-paper-data="{&quot;isPrimaryText&quot;:true}"><path d="M65,338.21741h14.474v-3.04716l-4.82467,-1.01572v-12.18863h4.97703l8.73519,12.18863l-4.31681,1.01572v3.04716h14.474v-3.04716l-4.31681,-1.01572l-10.46191,-14.57557l7.71947,-12.84885l5.02781,-1.01572v-3.04716l-8.37969,0.25393l-8.78597,14.98186h-4.67231v-11.17291l4.82467,-1.01572v-3.04716l-14.474,0.25393v2.79323l4.31681,1.01572v27.42443l-4.31681,1.01572z" data-paper-data="{&quot;glyphName&quot;:&quot;K&quot;,&quot;glyphIndex&quot;:0,&quot;firstGlyphOfWord&quot;:true,&quot;word&quot;:1}"></path><path d="M117.30955,302.15937c-10.15719,0 -16.50544,7.36397 -16.50544,18.53688c0,11.68077 5.58646,18.02902 15.48972,18.02902c9.90326,0 16.75937,-7.6179 16.75937,-18.79081c0,-10.91898 -5.84039,-17.77509 -15.74365,-17.77509zM117.05562,306.47618c6.60218,0 10.15719,4.57074 10.15719,13.71221c0,9.64933 -4.06288,14.22007 -10.66505,14.22007c-6.60218,0 -9.90326,-4.82467 -9.90326,-13.96614c0,-9.64933 3.80895,-13.96614 10.41112,-13.96614z" data-paper-data="{&quot;glyphName&quot;:&quot;O&quot;,&quot;glyphIndex&quot;:1,&quot;word&quot;:1}"></path><path d="M142.70254,334.15453l-4.31681,1.01572v3.04716h15.23579c10.15719,0 16.75937,-7.11004 16.75937,-18.28295c0,-11.17291 -6.09432,-17.26723 -15.99758,-17.26723h-6.34825l-9.64933,0.25393v2.79323l4.31681,1.01572zM148.03507,334.15453v-27.42443h6.09432c6.34825,0 10.41112,4.06288 10.41112,13.45828c0,9.64933 -4.31681,13.96614 -10.66505,13.96614z" data-paper-data="{&quot;glyphName&quot;:&quot;D&quot;,&quot;glyphIndex&quot;:2,&quot;lastGlyphOfWord&quot;:true,&quot;word&quot;:1}"></path><path d="M212.27932,313.33229h3.80895l0.25393,-8.63362c0,0 -5.84039,-2.5393 -11.42684,-2.5393c-10.41112,0 -17.0133,7.36397 -17.0133,19.04474c0,11.42684 6.09432,17.52116 16.25151,17.52116c7.6179,0 12.69649,-5.33253 12.69649,-5.33253l-2.03144,-3.30109c0,0 -4.82467,4.06288 -10.15719,4.06288c-6.34825,0 -10.91898,-4.06288 -10.91898,-13.20435c0,-9.39541 3.80895,-14.474 10.66505,-14.474c3.80895,0 6.5006,1.01572 6.5006,1.01572z" data-paper-data="{&quot;glyphName&quot;:&quot;C&quot;,&quot;glyphIndex&quot;:3,&quot;firstGlyphOfWord&quot;:true,&quot;word&quot;:2}"></path><path d="M220.65901,338.21741h14.474v-3.04716l-4.82467,-1.01572v-12.18863h17.0133v12.18863l-4.82467,1.01572v3.04716h14.474v-3.04716l-4.31681,-1.01572v-27.42443l4.31681,-1.01572v-3.04716l-14.474,0.25393v2.79323l4.82467,1.01572v11.17291h-17.0133v-11.17291l4.82467,-1.01572v-3.04716l-14.474,0.25393v2.79323l4.31681,1.01572v27.42443l-4.31681,1.01572z" data-paper-data="{&quot;glyphName&quot;:&quot;H&quot;,&quot;glyphIndex&quot;:4,&quot;word&quot;:2}"></path><path d="M262.65901,334.20532l-4.16445,0.96493v3.04716h13.96614v-3.04716l-4.77388,-0.96493l1.98065,-5.63724h13.20435l1.92987,5.63724l-4.7231,0.96493v3.04716h14.72793v-3.04716l-4.21524,-0.96493l-11.27449,-31.53809l-5.0786,0.25393zM281.5006,324.5052h-10.46191l5.33253,-15.28658z" data-paper-data="{&quot;glyphName&quot;:&quot;A&quot;,&quot;glyphIndex&quot;:5,&quot;word&quot;:2}"></path><path d="M315.37485,334.15453h-10.41112v-27.42443l4.31681,-1.01572v-3.04716l-13.96614,0.25393v2.79323l4.31681,1.01572v27.42443l-4.31681,1.01572v3.04716h24.6312v-9.90326h-3.55502z" data-paper-data="{&quot;glyphName&quot;:&quot;L&quot;,&quot;glyphIndex&quot;:6,&quot;word&quot;:2}"></path><path d="M342.29141,334.15453h-10.41112v-27.42443l4.31681,-1.01572v-3.04716l-13.96614,0.25393v2.79323l4.31681,1.01572v27.42443l-4.31681,1.01572v3.04716h24.6312v-9.90326h-3.55502z" data-paper-data="{&quot;glyphName&quot;:&quot;L&quot;,&quot;glyphIndex&quot;:7,&quot;word&quot;:2}"></path><path d="M359.55865,317.64909v-10.91898h10.91898l1.26965,4.57074h3.30109v-8.63362h-15.48972l-9.64933,0.25393v2.79323l4.31681,1.01572v27.42443l-4.31681,1.01572v3.04716h25.64692v-9.14148h-3.30109l-1.01572,5.0786h-11.68077v-12.44256h11.68077v-4.06288z" data-paper-data="{&quot;glyphName&quot;:&quot;E&quot;,&quot;glyphIndex&quot;:8,&quot;word&quot;:2}"></path><path d="M389.52237,334.15453v-23.92019l16.75937,27.98307h6.34825v-31.4873l4.31681,-1.01572v-3.04716l-13.20435,0.25393v2.79323l4.31681,1.01572v24.32648l-16.75937,-28.38936l-10.66505,0.25393v2.79323l4.31681,1.01572v27.42443l-4.31681,1.01572v3.04716h13.71221v-3.04716z" data-paper-data="{&quot;glyphName&quot;:&quot;N&quot;,&quot;glyphIndex&quot;:9,&quot;word&quot;:2}"></path><path d="M450.9734,324.80992l3.80895,-1.01572v-3.04716l-13.20435,0.25393v2.79323l4.31681,1.01572v8.3289c0,0 -3.55502,1.26965 -7.11004,1.26965c-6.60218,0 -11.17291,-4.31681 -11.17291,-13.45828c0,-9.39541 3.80895,-14.474 10.66505,-14.474c3.80895,0 6.85611,1.01572 6.85611,1.01572l1.52358,5.58646h3.30109l0.25393,-8.37969c0,0 -5.84039,-2.5393 -11.42684,-2.5393c-10.41112,0 -17.0133,7.36397 -17.0133,19.04474c0,11.42684 6.09432,17.52116 16.25151,17.52116c7.56711,0 12.95042,-3.04716 12.95042,-3.04716z" data-paper-data="{&quot;glyphName&quot;:&quot;G&quot;,&quot;glyphIndex&quot;:10,&quot;word&quot;:2}"></path><path d="M469.00242,317.64909v-10.91898h10.91898l1.26965,4.57074h3.30109v-8.63362h-15.48972l-9.64933,0.25393v2.79323l4.31681,1.01572v27.42443l-4.31681,1.01572v3.04716h25.64692v-9.14148h-3.30109l-1.01572,5.0786h-11.68077v-12.44256h11.68077v-4.06288z" data-paper-data="{&quot;glyphName&quot;:&quot;E&quot;,&quot;glyphIndex&quot;:11,&quot;lastGlyphOfWord&quot;:true,&quot;word&quot;:2}"></path></g><g data-paper-data="{&quot;selectedEffects&quot;:{&quot;container&quot;:&quot;&quot;,&quot;transformation&quot;:&quot;&quot;,&quot;pattern&quot;:&quot;&quot;},&quot;initialText&quot;:&quot;KC&quot;,&quot;isIcon&quot;:&quot;true&quot;,&quot;iconType&quot;:&quot;initial&quot;,&quot;iconStyle&quot;:&quot;standalone&quot;,&quot;rawInitialId&quot;:543,&quot;monogramSpecial&quot;:&quot;melted-letters&quot;,&quot;bounds&quot;:{&quot;x&quot;:211.86044014510279,&quot;y&quot;:131.27472793228534,&quot;width&quot;:126.27911970979446,&quot;height&quot;:143.82587666263603},&quot;fillRule&quot;:&quot;nonzero&quot;,&quot;suitableAsStandaloneIcon&quot;:true}"><path d="M303.04605,161.04668l-21.1424,29.34048l27.75839,52.49644c-3.45182,0.5753 -7.7666,0.86296 -13.08815,1.15061l-23.01214,-43.72307l-15.38937,20.27945v54.51001h-12.08137v-112.18418c3.45182,-0.28765 7.47895,-0.5753 12.08137,-0.5753v42.42863c7.04747,-9.49251 19.41649,-27.03926 31.64169,-44.29837c2.73269,-3.73947 5.32156,-7.47895 7.91042,-11.07459c4.60243,-6.47216 9.06103,-12.8005 12.94433,-18.12206h13.66346l-13.51963,18.84119zM258.17237,131.27473v16.39615c-4.74625,0 -8.62955,0.14383 -12.08137,0.43148v-16.82763zM295.5671,149.39679c-2.58887,3.59565 -5.32156,7.33512 -7.91042,11.07459c-4.17095,-0.14383 -6.47216,-0.14383 -11.6499,-0.14383c-6.75982,0 -12.65668,0 -17.83441,0.14383c-4.60243,0.14383 -8.62955,0.28765 -12.08137,0.5753c-20.99858,2.15739 -21.28623,10.35546 -21.28623,42.28481c0,24.16275 1.29443,31.64169 5.75304,36.24412c2.87652,3.16417 6.18451,4.89008 13.66346,5.75304v11.21842c-13.08815,-1.29443 -18.84119,-3.59565 -24.01892,-8.9172c-6.75982,-7.04747 -8.3419,-15.38937 -8.3419,-44.29837c0,-32.93613 2.15739,-41.42185 12.94433,-48.18167c4.74625,-3.02034 9.63633,-4.4586 21.28623,-5.17773c3.45182,-0.28765 7.33512,-0.43148 12.08137,-0.5753c7.19129,-0.14383 15.96467,-0.14383 27.03926,-0.14383c4.74625,0 7.91042,0 10.35546,0.14383zM324.90758,183.62735v-2.73269c0,-13.80728 -4.31478,-19.12884 -19.70415,-19.84797l7.91042,-10.93077c6.61599,0.86296 10.49929,2.44504 14.23876,5.17773c7.19129,4.89008 9.34868,11.50607 9.92399,28.3337zM338.13956,220.5906v4.4586c0,12.65668 -1.15061,18.26589 -5.32156,23.01214c-3.73947,4.4586 -8.48573,6.61599 -16.97145,7.7666c-1.58208,0.28765 -8.77338,0.71913 -13.37581,0.86296c-7.91042,0.28765 -18.12206,0.5753 -26.89544,0.5753c-6.61599,0 -10.49929,-0.14383 -15.53319,-0.14383v-11.21842c4.31478,0.14383 7.47895,0.28765 13.23198,0.28765c9.49251,0 17.25911,-0.14383 23.58744,-0.43148c5.32156,-0.14383 9.63633,-0.43148 13.23198,-1.00678c13.66346,-2.01356 15.67702,-6.75982 15.67702,-18.12206v-6.04069zM325.91436,275.1006h-14.09494l-9.34868,-16.53998c3.73947,-0.14383 10.93077,-0.5753 13.37581,-0.86296z" data-paper-data="{&quot;isPathIcon&quot;:true}"></path></g></g></g></svg>